# xmcd
#
# Track frame offsets:
#	150
#	13450
#	25100
#	36875
#	46275
#	60137
#	71075
#	82525
#	96075
#	109600
#	124700
#	136650
#	148825
#	158525
#	171412
#	182250
#
# Disc length: 2572
#
# Revision: 3
# Processed by: cddbd v1.5.1PL0 Copyright (c) Steve Scherf et al.
# Submitted via: audiograbber 1.82.00
# Normalized: r1:DSETVAR1,TDELIM( - ),TSWAP
#
DISCID=c30a0a10
DTITLE=Various Artist - Country Girls
DYEAR=1900
DGENRE=
TTITLE0=Lynn Anderson - Rose Garden
TTITLE1=Sammi Smith - Help Me Make It Though The Night
TTITLE2=Skeeter Davis - I'm Falling Too
TTITLE3=Sandy Posey - Born a Woman
TTITLE4=Judy Stone - Save Your Love
TTITLE5=Donna Fargo - All That's Keeping Me Alive
TTITLE6=Kitty Wells - It Wasn't God Who Made Honky Tonk Angles
TTITLE7=Gogi Grant - The Wayward Wind
TTITLE8=Patti Page - Tennessee Waltz
TTITLE9=Jeannie C Riley - Harper Vally PTA
TTITLE10=Margie Rowes - Little Miss Belongs To Noone
TTITLE11=Susan Ray - LA International Airport
TTITLE12=Skeeter Davis - Am I That Easy To Forget
TTITLE13=Patti Page - Allegheny Moon
TTITLE14=Timi Yuro - Hurt
TTITLE15=Lynn Anderson - Silver Threads And Golden Needles
EXTD=
EXTT0=
EXTT1=
EXTT2=
EXTT3=
EXTT4=
EXTT5=
EXTT6=
EXTT7=
EXTT8=
EXTT9=
EXTT10=
EXTT11=
EXTT12=
EXTT13=
EXTT14=
EXTT15=
PLAYORDER=
